<svg width="29" height="25" viewBox="0 0 29 25" fill="none" xmlns="http://www.w3.org/2000/svg">
<path id="Vector" d="M7.53326 0.510346L7.53323 0.510345C5.62356 0.410182 3.77325 1.03628 2.4061 2.39473C-0.316958 5.10046 -0.124531 9.77425 3.00129 12.8776C3.00133 12.8777 3.00137 12.8777 3.00142 12.8778L4.18077 14.0478L4.18092 14.0479L14.5011 24.2953L24.819 14.048L24.8192 14.0478L25.9985 12.8779L25.9987 12.8776M7.53326 0.510346L15.6829 2.63535C18.9694 -0.629712 23.9919 -0.895552 26.9463 2.04005C29.9007 4.97565 29.6374 9.96754 26.3509 13.2326L25.9987 12.8776M7.53326 0.510346C9.44621 0.610568 11.4079 1.44126 12.9644 2.98981L12.9649 2.9903L14.149 4.165L14.5015 4.5147L14.8536 4.16466L16.0353 2.99006M7.53326 0.510346L16.0353 2.99006M25.9987 12.8776C29.1246 9.77187 29.3169 5.10036 26.5939 2.39473C23.8688 -0.313025 19.1631 -0.117205 16.0354 2.98996C16.0354 2.98999 16.0353 2.99003 16.0353 2.99006M25.9987 12.8776L16.0353 2.99006" stroke="white"/>
</svg>
