<svg width="14" height="14" viewBox="0 0 14 14" fill="none" xmlns="http://www.w3.org/2000/svg">
<g id="icon pencil" clip-path="url(#clip0_12_55)">
<path id="icon pencil_2" d="M8.50722 1.35364L1.56579 7.85012V9.62511H3.46063L10.4031 3.12676L8.50722 1.35364ZM11.6729 3.52287L4.13251 10.5808C4.02029 10.686 3.86803 10.7451 3.70922 10.7452H0.96679C0.807924 10.7452 0.655566 10.6862 0.543231 10.581C0.430897 10.4759 0.367788 10.3334 0.367788 10.1847V7.61843C0.367928 7.46982 0.431128 7.32735 0.543495 7.22233L8.08393 0.164394C8.13956 0.112279 8.20562 0.070935 8.27834 0.042727C8.35106 0.014519 8.429 0 8.50772 0C8.58644 0 8.66439 0.014519 8.7371 0.042727C8.80982 0.070935 8.87588 0.112279 8.93151 0.164394L11.6729 2.73066C11.7851 2.83576 11.8481 2.97823 11.8481 3.12676C11.8481 3.2753 11.7851 3.41777 11.6729 3.52287ZM0.96679 14C0.794686 14 0.629631 13.936 0.507935 13.8221C0.386239 13.7083 0.317871 13.5538 0.317871 13.3928C0.317871 13.2317 0.386239 13.0773 0.507935 12.9634C0.629631 12.8495 0.794686 12.7855 0.96679 12.7855H12.9468C13.1189 12.7855 13.284 12.8495 13.4057 12.9634C13.5274 13.0773 13.5957 13.2317 13.5957 13.3928C13.5957 13.5538 13.5274 13.7083 13.4057 13.8221C13.284 13.936 13.1189 14 12.9468 14H0.96679Z" fill="#9A9AAD"/>
</g>
<defs>
<clipPath id="clip0_12_55">
<rect width="13.2779" height="14" fill="white" transform="translate(0.317871)"/>
</clipPath>
</defs>
</svg>
