<svg width="32" height="32" viewBox="0 0 32 32" fill="none" xmlns="http://www.w3.org/2000/svg">
<ellipse cx="16.439" cy="16" rx="15.561" ry="16" fill="#FE043C"/>
<path d="M22.3 10.825C22.3 11.5292 21.6956 12.1 20.95 12.1C20.2044 12.1 19.6 11.5292 19.6 10.825C19.6 10.1208 20.2044 9.55 20.95 9.55C21.6956 9.55 22.3 10.1208 22.3 10.825Z" fill="#FFCC80"/>
<path fill-rule="evenodd" clip-rule="evenodd" d="M16 19.75C18.4853 19.75 20.5 17.8472 20.5 15.5C20.5 13.1528 18.4853 11.25 16 11.25C13.5147 11.25 11.5 13.1528 11.5 15.5C11.5 17.8472 13.5147 19.75 16 19.75ZM16 18.05C17.4912 18.05 18.7 16.9083 18.7 15.5C18.7 14.0917 17.4912 12.95 16 12.95C14.5088 12.95 13.3 14.0917 13.3 15.5C13.3 16.9083 14.5088 18.05 16 18.05Z" fill="#FFCC80"/>
<path fill-rule="evenodd" clip-rule="evenodd" d="M7 15.16C7 12.3037 7 10.8756 7.58856 9.78465C8.10628 8.82502 8.93238 8.04482 9.94845 7.55587C11.1036 7 12.6157 7 15.64 7H16.36C19.3843 7 20.8964 7 22.0515 7.55587C23.0676 8.04482 23.8937 8.82502 24.4114 9.78465C25 10.8756 25 12.3037 25 15.16V15.84C25 18.6963 25 20.1244 24.4114 21.2154C23.8937 22.175 23.0676 22.9552 22.0515 23.4441C20.8964 24 19.3843 24 16.36 24H15.64C12.6157 24 11.1036 24 9.94845 23.4441C8.93238 22.9552 8.10628 22.175 7.58856 21.2154C7 20.1244 7 18.6963 7 15.84V15.16ZM15.64 8.7H16.36C17.9018 8.7 18.95 8.70132 19.7601 8.76384C20.5493 8.82473 20.9528 8.93511 21.2344 9.07058C21.9117 9.39655 22.4625 9.91668 22.8076 10.5564C22.9511 10.8223 23.0679 11.2035 23.1324 11.9488C23.1986 12.7139 23.2 13.7038 23.2 15.16V15.84C23.2 17.2962 23.1986 18.2861 23.1324 19.0512C23.0679 19.7965 22.9511 20.1777 22.8076 20.4436C22.4625 21.0833 21.9117 21.6035 21.2344 21.9294C20.9528 22.0649 20.5493 22.1753 19.7601 22.2362C18.95 22.2987 17.9018 22.3 16.36 22.3H15.64C14.0982 22.3 13.05 22.2987 12.2399 22.2362C11.4507 22.1753 11.0472 22.0649 10.7656 21.9294C10.0883 21.6035 9.53752 21.0833 9.19238 20.4436C9.04894 20.1777 8.93207 19.7965 8.86759 19.0512C8.8014 18.2861 8.8 17.2962 8.8 15.84V15.16C8.8 13.7038 8.8014 12.7139 8.86759 11.9488C8.93207 11.2035 9.04894 10.8223 9.19238 10.5564C9.53752 9.91668 10.0883 9.39655 10.7656 9.07058C11.0472 8.93511 11.4507 8.82473 12.2399 8.76384C13.05 8.70132 14.0982 8.7 15.64 8.7Z" fill="#FFCC80"/>
</svg>
