<svg width="14" height="15" viewBox="0 0 14 15" fill="none" xmlns="http://www.w3.org/2000/svg">
<path id="share_outline" d="M11.3958 14.5834C10.6293 14.5922 9.90288 14.242 9.43246 13.6368C8.96204 13.0317 8.80184 12.2413 8.99949 11.5007L4.56533 8.96627C3.79911 9.66825 2.67598 9.81682 1.75359 9.33822C0.831201 8.85961 0.30603 7.85576 0.438838 6.82512C0.571646 5.79448 1.33414 4.95656 2.34773 4.72742C3.36132 4.49828 4.4101 4.92672 4.97333 5.80002L8.99879 3.49864C8.94671 3.30186 8.91911 3.0994 8.91662 2.89585C8.90647 1.71061 9.72965 0.680993 10.8881 0.430016C12.0465 0.179039 13.222 0.775627 13.7033 1.85879C14.1846 2.94196 13.8395 4.21422 12.8769 4.90575C11.9142 5.59728 10.5984 5.51816 9.72554 4.71627L5.36858 7.20606C5.36426 7.38975 5.33859 7.57231 5.29208 7.75006L9.72554 10.2838C10.5417 9.53474 11.7562 9.41911 12.699 10.0007C13.6419 10.5822 14.0837 11.7194 13.7806 12.7849C13.4776 13.8505 12.5036 14.585 11.3958 14.5834ZM11.3958 11.0417C10.809 11.0417 10.3333 11.5174 10.3333 12.1042C10.3333 12.691 10.809 13.1667 11.3958 13.1667C11.9826 13.1667 12.4583 12.691 12.4583 12.1042C12.4583 11.5174 11.9826 11.0417 11.3958 11.0417ZM2.89579 6.08335C2.30898 6.08335 1.83329 6.55905 1.83329 7.14585C1.83329 7.73265 2.30898 8.20835 2.89579 8.20835C3.48259 8.20835 3.95829 7.73265 3.95829 7.14585C3.95829 6.55905 3.48259 6.08335 2.89579 6.08335ZM11.3958 1.83335C10.809 1.83335 10.3333 2.30905 10.3333 2.89585C10.3333 3.48265 10.809 3.95835 11.3958 3.95835C11.9826 3.95835 12.4583 3.48265 12.4583 2.89585C12.4583 2.30905 11.9826 1.83335 11.3958 1.83335Z" fill="#73738F"/>
</svg>
