<svg width="27" height="30" viewBox="0 0 27 30" fill="none" xmlns="http://www.w3.org/2000/svg">
<path id="Vector" d="M19.0085 9.32203V10.1752C18.8891 10.1603 18.7675 10.1525 18.6441 10.1525C18.5206 10.1525 18.399 10.1603 18.2797 10.1752V9.32203V7.45763C18.2797 4.57311 15.9354 2.22881 13.0508 2.22881C10.1663 2.22881 7.82203 4.57311 7.82203 7.45763V9.32203V10.1752C7.70267 10.1603 7.58105 10.1525 7.45763 10.1525C7.3342 10.1525 7.21258 10.1603 7.09322 10.1752V9.32203V7.45763C7.09322 4.17387 9.76709 1.5 13.0508 1.5C16.3346 1.5 19.0085 4.17388 19.0085 7.45763V9.32203ZM21.5424 13.0508C21.5424 12.1548 21.1357 11.3537 20.4969 10.822H20.5085H24.6017V25.1695C24.6017 26.9153 23.1865 28.3305 21.4407 28.3305H4.66102C2.91522 28.3305 1.5 26.9153 1.5 25.1695V10.822H5.59322H5.60479C4.96597 11.3537 4.55932 12.1548 4.55932 13.0508C4.55932 14.6515 5.85693 15.9492 7.45763 15.9492C9.05833 15.9492 10.3559 14.6515 10.3559 13.0508C10.3559 12.1548 9.94929 11.3537 9.31047 10.822H9.32203H16.7797H16.7912C16.1524 11.3537 15.7458 12.1548 15.7458 13.0508C15.7458 14.6515 17.0434 15.9492 18.6441 15.9492C20.2448 15.9492 21.5424 14.6515 21.5424 13.0508Z" fill="#ECE9E9" stroke="white" stroke-width="3"/>
</svg>
