<svg aria-hidden="true" style="position: absolute; width: 0; height: 0; overflow: hidden;" version="1.1" xmlns="http://www.w3.org/2000/svg" xmlns:xlink="http://www.w3.org/1999/xlink">
<defs>
<symbol id="icon-Shopping-cart" viewBox="0 0 29 32">
<path d="M20.276 9.944v0.91c-0.127-0.016-0.257-0.024-0.389-0.024s-0.261 0.008-0.389 0.024v-2.899c0-3.077-2.501-5.577-5.578-5.577s-5.577 2.501-5.577 5.577v2.899c-0.127-0.016-0.257-0.024-0.389-0.024s-0.261 0.008-0.389 0.024v-2.899c0-3.503 2.852-6.355 6.355-6.355s6.355 2.852 6.355 6.355v1.989zM22.979 13.921c0-0.956-0.434-1.81-1.115-2.377h4.378v15.304c0 1.862-1.51 3.372-3.372 3.372h-17.898c-1.862 0-3.372-1.51-3.372-3.372v-15.304h4.378c-0.681 0.567-1.115 1.422-1.115 2.377 0 1.707 1.384 3.092 3.092 3.092s3.091-1.384 3.091-3.092c0-0.956-0.434-1.81-1.115-2.377h7.979c-0.681 0.567-1.115 1.422-1.115 2.377 0 1.707 1.384 3.092 3.092 3.092s3.092-1.384 3.092-3.092z"></path>
</symbol>
<symbol id="icon-Nav-arrow" viewBox="0 0 19 32">
<path d="M18.323 16.713l-13.803 13.803c-0.666 0.666-1.745 0.666-2.411 0l-1.61-1.61c-0.665-0.664-0.666-1.742-0.003-2.408l10.939-10.99-10.939-10.99c-0.663-0.666-0.662-1.743 0.003-2.408l1.61-1.61c0.666-0.666 1.745-0.666 2.411 0l13.803 13.803c0.666 0.666 0.666 1.745 0 2.411z"></path>
</symbol>
<symbol id="icon-Vector" viewBox="0 0 24 32">
<path   d="M10.767 31.354c-9.081-13.165-10.767-14.516-10.767-19.354 0-6.627 5.373-12 12-12s12 5.373 12 12c0 4.838-1.686 6.189-10.767 19.354-0.596 0.861-1.871 0.861-2.467 0zM12 17c2.761 0 5-2.238 5-5s-2.238-5-5-5c-2.761 0-5 2.239-5 5s2.239 5 5 5z"></path>
</symbol>
<symbol id="icon-Vector_active" viewBox="0 0 53 32">
<path   d="M3.589 0h46.156c3.193 0 4.79 4.079 2.529 6.47l-23.069 24.42c-1.399 1.48-3.677 1.48-5.077 0l-23.069-24.42c-2.26-2.391-0.664-6.47 2.529-6.47z"></path>
</symbol>
<symbol id="icon-Star-5" viewBox="0 0 32 32">
<path  d="M14.283 1.113l-3.906 8.274-8.739 1.331c-1.567 0.237-2.195 2.256-1.059 3.412l6.322 6.437-1.495 9.093c-0.269 1.644 1.388 2.875 2.775 2.106l7.818-4.293 7.818 4.293c1.388 0.762 3.044-0.462 2.775-2.106l-1.495-9.093 6.322-6.437c1.136-1.156 0.508-3.175-1.059-3.412l-8.739-1.331-3.906-8.274c-0.7-1.475-2.727-1.494-3.433 0z"></path>
</symbol>
<symbol id="icon-left-arrow" viewBox="0 0 32 32">
<path  d="M16 32c-8.839 0-16-7.161-16-16s7.161-16 16-16c8.839 0 16 7.161 16 16s-7.161 16-16 16zM23.484 13.161h-7.484v-4.574c0-0.69-0.839-1.039-1.323-0.548l-7.374 7.413c-0.303 0.303-0.303 0.787 0 1.090l7.374 7.413c0.49 0.49 1.323 0.142 1.323-0.548v-4.568h7.484c0.426 0 0.774-0.348 0.774-0.774v-4.129c0-0.426-0.348-0.774-0.774-0.774z"></path>
</symbol>
<symbol id="icon-fill-heart" viewBox="0 0 37 32">
<path  d="M9.676 0.014c-2.606-0.137-5.157 0.718-7.047 2.597-3.782 3.758-3.445 10.15 0.762 14.326l15.171 15.062 15.168-15.062c4.207-4.179 4.544-10.569 0.762-14.326s-10.21-3.417-14.417 0.762l-1.513 1.504-1.516-1.504c-2.102-2.091-4.761-3.222-7.37-3.359z"></path>
</symbol>
<symbol id="icon-empty-heart" viewBox="0 0 37 32">
<path  d="M9.643 0.653h-0c-2.444-0.128-4.813 0.673-6.563 2.412-3.486 3.463-3.239 9.446 0.762 13.418 0 0 0 0 0 0l14.72 14.614 14.717-14.615M9.643 0.653l10.432 2.72c4.207-4.179 10.636-4.52 14.417-0.762s3.445 10.147-0.762 14.326l-0.451-0.454M9.643 0.653c2.449 0.128 4.96 1.192 6.952 3.174l0.001 0.001 1.967 1.951 1.963-1.952M9.643 0.653l10.883 3.174M33.278 16.483c4.001-3.975 4.247-9.955 0.762-13.418-3.488-3.466-9.511-3.215-13.515 0.762 0 0-0 0-0 0M33.278 16.483l-12.753-12.656"></path>
</symbol>
<symbol id="icon-dishes-card-icon" viewBox="0 0 35 32">
<path d="M0 7.742c0-4.276 3.466-7.742 7.742-7.742h19.097c4.276 0 7.742 3.466 7.742 7.742v11.355c0 7.126-5.777 12.903-12.903 12.903h-21.677v-24.258z"></path>
<path d="M24.507 17.605l1.271-5.661c0.162-0.723-0.38-1.427-1.133-1.427h-10.136l-0.163-0.806c-0.109-0.541-0.582-0.936-1.138-0.936h-2.756c-0.647 0-1.161 0.53-1.161 1.169v0.435c0 0.64 0.514 1.169 1.161 1.169h1.456l1.739 8.609c-0.429 0.374-0.701 0.928-0.701 1.544 0 1.121 0.899 2.040 2.022 2.040s2.022-0.92 2.022-2.040c0-0.199-0.028-0.391-0.081-0.573h3.861c-0.053 0.182-0.081 0.374-0.081 0.573 0 1.121 0.899 2.040 2.022 2.040s2.022-0.92 2.022-2.040c0-0.654-0.306-1.238-0.782-1.612l0.069-0.308c0.116-0.516-0.127-1.022-0.549-1.27 0.505-0.041 0.926-0.41 1.038-0.908 0 0 0 0 0 0z"></path>
</symbol>
<symbol id="icon-right-arrow" viewBox="0 0 32 32">
<path d="M16 0c8.839 0 16 7.161 16 16s-7.161 16-16 16c-8.839 0-16-7.161-16-16s7.161-16 16-16zM8.516 18.839h7.484v4.574c0 0.69 0.839 1.039 1.323 0.548l7.374-7.413c0.303-0.303 0.303-0.787 0-1.090l-7.374-7.419c-0.49-0.49-1.323-0.142-1.323 0.548v4.574h-7.484c-0.426 0-0.774 0.348-0.774 0.774v4.129c0 0.426 0.348 0.774 0.774 0.774z"></path>
</symbol>
</defs>
</svg>
