<svg aria-hidden="true" style="position: absolute; width: 0; height: 0; overflow: hidden;" version="1.1" xmlns="http://www.w3.org/2000/svg" xmlns:xlink="http://www.w3.org/1999/xlink">
<defs>
<symbol id="icon-Shopping-cart" viewBox="0 0 29 32">
<path d="M20.276 9.944v0.91c-0.127-0.016-0.257-0.024-0.389-0.024s-0.261 0.008-0.389 0.024v-2.899c0-3.077-2.501-5.577-5.578-5.577s-5.577 2.501-5.577 5.577v2.899c-0.127-0.016-0.257-0.024-0.389-0.024s-0.261 0.008-0.389 0.024v-2.899c0-3.503 2.852-6.355 6.355-6.355s6.355 2.852 6.355 6.355v1.989zM22.979 13.921c0-0.956-0.434-1.81-1.115-2.377h4.378v15.304c0 1.862-1.51 3.372-3.372 3.372h-17.898c-1.862 0-3.372-1.51-3.372-3.372v-15.304h4.378c-0.681 0.567-1.115 1.422-1.115 2.377 0 1.707 1.384 3.092 3.092 3.092s3.091-1.384 3.091-3.092c0-0.956-0.434-1.81-1.115-2.377h7.979c-0.681 0.567-1.115 1.422-1.115 2.377 0 1.707 1.384 3.092 3.092 3.092s3.092-1.384 3.092-3.092z"></path>
</symbol>
<symbol id="icon-Nav-arrow" viewBox="0 0 19 32">
<path d="M18.323 16.713l-13.803 13.803c-0.666 0.666-1.745 0.666-2.411 0l-1.61-1.61c-0.665-0.664-0.666-1.742-0.003-2.408l10.939-10.99-10.939-10.99c-0.663-0.666-0.662-1.743 0.003-2.408l1.61-1.61c0.666-0.666 1.745-0.666 2.411 0l13.803 13.803c0.666 0.666 0.666 1.745 0 2.411z"></path>
</symbol>
<symbol id="icon-Vector" viewBox="0 0 24 32">
<path   d="M10.767 31.354c-9.081-13.165-10.767-14.516-10.767-19.354 0-6.627 5.373-12 12-12s12 5.373 12 12c0 4.838-1.686 6.189-10.767 19.354-0.596 0.861-1.871 0.861-2.467 0zM12 17c2.761 0 5-2.238 5-5s-2.238-5-5-5c-2.761 0-5 2.239-5 5s2.239 5 5 5z"></path>
</symbol>
<symbol id="icon-Vector_active" viewBox="0 0 53 32">
<path   d="M3.589 0h46.156c3.193 0 4.79 4.079 2.529 6.47l-23.069 24.42c-1.399 1.48-3.677 1.48-5.077 0l-23.069-24.42c-2.26-2.391-0.664-6.47 2.529-6.47z"></path>
</symbol>
<symbol id="icon-Star-5" viewBox="0 0 32 32">
<path  d="M14.283 1.113l-3.906 8.274-8.739 1.331c-1.567 0.237-2.195 2.256-1.059 3.412l6.322 6.437-1.495 9.093c-0.269 1.644 1.388 2.875 2.775 2.106l7.818-4.293 7.818 4.293c1.388 0.762 3.044-0.462 2.775-2.106l-1.495-9.093 6.322-6.437c1.136-1.156 0.508-3.175-1.059-3.412l-8.739-1.331-3.906-8.274c-0.7-1.475-2.727-1.494-3.433 0z"></path>
</symbol>
<symbol id="icon-left-arrow" viewBox="0 0 32 32">
<path  d="M16 32c-8.839 0-16-7.161-16-16s7.161-16 16-16c8.839 0 16 7.161 16 16s-7.161 16-16 16zM23.484 13.161h-7.484v-4.574c0-0.69-0.839-1.039-1.323-0.548l-7.374 7.413c-0.303 0.303-0.303 0.787 0 1.090l7.374 7.413c0.49 0.49 1.323 0.142 1.323-0.548v-4.568h7.484c0.426 0 0.774-0.348 0.774-0.774v-4.129c0-0.426-0.348-0.774-0.774-0.774z"></path>
</symbol>
<symbol id="icon-fill-heart" viewBox="0 0 37 32">
<path  d="M9.676 0.014c-2.606-0.137-5.157 0.718-7.047 2.597-3.782 3.758-3.445 10.15 0.762 14.326l15.171 15.062 15.168-15.062c4.207-4.179 4.544-10.569 0.762-14.326s-10.21-3.417-14.417 0.762l-1.513 1.504-1.516-1.504c-2.102-2.091-4.761-3.222-7.37-3.359z"></path>
</symbol>
<symbol id="icon-empty-heart" viewBox="0 0 37 32">
<path  d="M9.643 0.653h-0c-2.444-0.128-4.813 0.673-6.563 2.412-3.486 3.463-3.239 9.446 0.762 13.418 0 0 0 0 0 0l14.72 14.614 14.717-14.615M9.643 0.653l10.432 2.72c4.207-4.179 10.636-4.52 14.417-0.762s3.445 10.147-0.762 14.326l-0.451-0.454M9.643 0.653c2.449 0.128 4.96 1.192 6.952 3.174l0.001 0.001 1.967 1.951 1.963-1.952M9.643 0.653l10.883 3.174M33.278 16.483c4.001-3.975 4.247-9.955 0.762-13.418-3.488-3.466-9.511-3.215-13.515 0.762 0 0-0 0-0 0M33.278 16.483l-12.753-12.656"></path>
</symbol>
<symbol id="icon-dishes-card-icon" viewBox="0 0 35 32">
<path d="M0 7.742c0-4.276 3.466-7.742 7.742-7.742h19.097c4.276 0 7.742 3.466 7.742 7.742v11.355c0 7.126-5.777 12.903-12.903 12.903h-21.677v-24.258z"></path>
<path d="M24.507 17.605l1.271-5.661c0.162-0.723-0.38-1.427-1.133-1.427h-10.136l-0.163-0.806c-0.109-0.541-0.582-0.936-1.138-0.936h-2.756c-0.647 0-1.161 0.53-1.161 1.169v0.435c0 0.64 0.514 1.169 1.161 1.169h1.456l1.739 8.609c-0.429 0.374-0.701 0.928-0.701 1.544 0 1.121 0.899 2.040 2.022 2.040s2.022-0.92 2.022-2.040c0-0.199-0.028-0.391-0.081-0.573h3.861c-0.053 0.182-0.081 0.374-0.081 0.573 0 1.121 0.899 2.040 2.022 2.040s2.022-0.92 2.022-2.040c0-0.654-0.306-1.238-0.782-1.612l0.069-0.308c0.116-0.516-0.127-1.022-0.549-1.27 0.505-0.041 0.926-0.41 1.038-0.908 0 0 0 0 0 0z"></path>
</symbol>
<symbol id="icon-right-arrow" viewBox="0 0 32 32">
<path d="M16 0c8.839 0 16 7.161 16 16s-7.161 16-16 16c-8.839 0-16-7.161-16-16s7.161-16 16-16zM8.516 18.839h7.484v4.574c0 0.69 0.839 1.039 1.323 0.548l7.374-7.413c0.303-0.303 0.303-0.787 0-1.090l-7.374-7.419c-0.49-0.49-1.323-0.142-1.323 0.548v4.574h-7.484c-0.426 0-0.774 0.348-0.774 0.774v4.129c0 0.426 0.348 0.774 0.774 0.774z"></path>
</symbol>
<symbol id="icon-icon-pencil" viewBox="0 0 32 32">
<path d="M19.445 3.094l-15.866 14.849v4.057h4.331l15.868-14.853-4.333-4.053zM26.681 8.052l-17.235 16.132c-0.257 0.24-0.605 0.376-0.968 0.376h-6.268c-0.363 0-0.711-0.135-0.968-0.375s-0.401-0.566-0.401-0.906v-5.866c0-0.34 0.145-0.665 0.402-0.905l17.235-16.132c0.127-0.119 0.278-0.214 0.444-0.278s0.344-0.098 0.524-0.098c0.18 0 0.358 0.033 0.524 0.098s0.317 0.159 0.444 0.278l6.266 5.866c0.256 0.24 0.4 0.566 0.4 0.905s-0.144 0.665-0.4 0.905zM2.21 32c-0.393 0-0.771-0.146-1.049-0.407s-0.434-0.613-0.434-0.981c0-0.368 0.156-0.721 0.434-0.982s0.655-0.407 1.049-0.407h27.383c0.393 0 0.771 0.146 1.049 0.407s0.434 0.613 0.434 0.982c0 0.368-0.156 0.721-0.434 0.981s-0.656 0.407-1.049 0.407h-27.383z"></path>
</symbol>
<symbol id="icon-star-2-bg-grey" viewBox="0 0 32 32">
<path fill="#dcdce6" style="fill: var(--color1, #dcdce6)" d="M32 0h-30.6v32h30.6v-32z"></path>
</symbol>
<symbol id="icon-star-2-bg-green" viewBox="0 0 32 32">
<path fill="#73cf11" style="fill: var(--color2, #73cf11)" d="M31.75 0h-30.6v32h30.6v-32z"></path>
</symbol>
<symbol id="icon-star-2" viewBox="0 0 34 32">
<path fill="#fff" style="fill: var(--color3, #fff)" d="M17.286 23.952l6.648-1.762 2.778 8.952-9.426-7.19zM32.586 12.381h-11.703l-3.597-11.524-3.597 11.524h-11.703l9.471 7.143-3.597 11.524 24.726-18.667z"></path>
</symbol>
<symbol id="icon-share_outline" viewBox="0 0 30 32">
<path fill="#73738f" style="fill: var(--color1, #73738f)" d="M24.311 31.111c-1.635 0.019-3.185-0.728-4.188-2.019s-1.345-2.977-0.924-4.557l-9.46-5.407c-1.635 1.498-4.031 1.814-5.998 0.794s-3.088-3.163-2.805-5.361c0.283-2.199 1.91-3.986 4.072-4.475s4.4 0.425 5.601 2.288l8.588-4.91c-0.111-0.42-0.17-0.852-0.175-1.286-0.022-2.529 1.734-4.725 4.206-5.26s4.979 0.737 6.006 3.048 0.291 5.025-1.763 6.5c-2.054 1.475-4.861 1.306-6.723-0.404l-9.295 5.312c-0.009 0.392-0.064 0.781-0.163 1.161l9.458 5.405c1.741-1.598 4.332-1.845 6.343-0.604s2.954 3.667 2.307 5.94c-0.646 2.273-2.724 3.84-5.088 3.837zM24.311 23.556c-1.252 0-2.267 1.015-2.267 2.267s1.015 2.267 2.267 2.267c1.252 0 2.267-1.015 2.267-2.267s-1.015-2.267-2.267-2.267zM6.178 12.978c-1.252 0-2.267 1.015-2.267 2.267s1.015 2.267 2.267 2.267c1.252 0 2.267-1.015 2.267-2.267s-1.015-2.267-2.267-2.267zM24.311 3.911c-1.252 0-2.267 1.015-2.267 2.267s1.015 2.267 2.267 2.267c1.252 0 2.267-1.015 2.267-2.267s-1.015-2.267-2.267-2.267z"></path>
</symbol>
<symbol id="icon-icon-like" viewBox="0 0 32 32">
<path fill="#73738f" style="fill: var(--color1, #73738f)" d="M26.667 10.667h-7.483l1.497-4.489c0.269-0.811 0.133-1.709-0.367-2.403s-1.311-1.108-2.165-1.108h-2.149c-0.396 0-0.771 0.176-1.025 0.48l-6.267 7.52h-3.375c-1.471 0-2.667 1.196-2.667 2.667v12c0 1.471 1.196 2.667 2.667 2.667h17.743c0.543-0.002 1.072-0.168 1.518-0.477s0.788-0.746 0.98-1.253l3.676-9.801c0.056-0.15 0.084-0.308 0.084-0.468v-2.667c0-1.471-1.196-2.667-2.667-2.667zM5.333 13.333h2.667v12h-2.667v-12zM26.667 15.759l-3.591 9.575h-12.409v-12.851l5.957-7.149h1.528l-2.083 6.244c-0.068 0.2-0.086 0.414-0.055 0.623s0.112 0.408 0.236 0.579c0.124 0.172 0.286 0.311 0.475 0.408s0.397 0.146 0.608 0.146h9.333v2.425z"></path>
</symbol>
<symbol id="icon-location" viewBox="0 0 32 32">
<path d="M16 0c-5.523 0-10 4.477-10 10 0 10 10 22 10 22s10-12 10-22c0-5.523-4.477-10-10-10zM16 16c-3.314 0-6-2.686-6-6s2.686-6 6-6 6 2.686 6 6-2.686 6-6 6z"></path>
</symbol>
<symbol id="icon-mail4" viewBox="0 0 32 32">
<path d="M16 0c-8.837 0-16 7.163-16 16s7.163 16 16 16 16-7.163 16-16-7.163-16-16-16zM8 8h16c0.286 0 0.563 0.061 0.817 0.177l-8.817 10.286-8.817-10.287c0.254-0.116 0.531-0.177 0.817-0.177zM6 22v-12c0-0.042 0.002-0.084 0.004-0.125l5.864 6.842-5.8 5.8c-0.045-0.167-0.069-0.34-0.069-0.517zM24 24h-16c-0.177 0-0.35-0.024-0.517-0.069l5.691-5.691 2.826 3.297 2.826-3.297 5.691 5.691c-0.167 0.045-0.34 0.069-0.517 0.069zM26 22c0 0.177-0.024 0.35-0.069 0.517l-5.8-5.8 5.865-6.842c0.003 0.041 0.004 0.083 0.004 0.125v12z"></path>
</symbol>
<symbol id="icon-facebook" viewBox="0 0 32 32">
<path d="M19 6h5v-6h-5c-3.86 0-7 3.14-7 7v3h-4v6h4v16h6v-16h5l1-6h-6v-3c0-0.542 0.458-1 1-1z"></path>
</symbol>
<symbol id="icon-instagram" viewBox="0 0 32 32">
<path d="M16 2.881c4.275 0 4.781 0.019 6.462 0.094 1.563 0.069 2.406 0.331 2.969 0.55 0.744 0.288 1.281 0.638 1.837 1.194 0.563 0.563 0.906 1.094 1.2 1.838 0.219 0.563 0.481 1.412 0.55 2.969 0.075 1.688 0.094 2.194 0.094 6.463s-0.019 4.781-0.094 6.463c-0.069 1.563-0.331 2.406-0.55 2.969-0.288 0.744-0.637 1.281-1.194 1.837-0.563 0.563-1.094 0.906-1.837 1.2-0.563 0.219-1.413 0.481-2.969 0.55-1.688 0.075-2.194 0.094-6.463 0.094s-4.781-0.019-6.463-0.094c-1.563-0.069-2.406-0.331-2.969-0.55-0.744-0.288-1.281-0.637-1.838-1.194-0.563-0.563-0.906-1.094-1.2-1.837-0.219-0.563-0.481-1.413-0.55-2.969-0.075-1.688-0.094-2.194-0.094-6.463s0.019-4.781 0.094-6.463c0.069-1.563 0.331-2.406 0.55-2.969 0.288-0.744 0.638-1.281 1.194-1.838 0.563-0.563 1.094-0.906 1.838-1.2 0.563-0.219 1.412-0.481 2.969-0.55 1.681-0.075 2.188-0.094 6.463-0.094zM16 0c-4.344 0-4.887 0.019-6.594 0.094-1.7 0.075-2.869 0.35-3.881 0.744-1.056 0.412-1.95 0.956-2.837 1.85-0.894 0.888-1.438 1.781-1.85 2.831-0.394 1.019-0.669 2.181-0.744 3.881-0.075 1.713-0.094 2.256-0.094 6.6s0.019 4.887 0.094 6.594c0.075 1.7 0.35 2.869 0.744 3.881 0.413 1.056 0.956 1.95 1.85 2.837 0.887 0.887 1.781 1.438 2.831 1.844 1.019 0.394 2.181 0.669 3.881 0.744 1.706 0.075 2.25 0.094 6.594 0.094s4.888-0.019 6.594-0.094c1.7-0.075 2.869-0.35 3.881-0.744 1.050-0.406 1.944-0.956 2.831-1.844s1.438-1.781 1.844-2.831c0.394-1.019 0.669-2.181 0.744-3.881 0.075-1.706 0.094-2.25 0.094-6.594s-0.019-4.887-0.094-6.594c-0.075-1.7-0.35-2.869-0.744-3.881-0.394-1.063-0.938-1.956-1.831-2.844-0.887-0.887-1.781-1.438-2.831-1.844-1.019-0.394-2.181-0.669-3.881-0.744-1.712-0.081-2.256-0.1-6.6-0.1v0z"></path>
<path d="M16 7.781c-4.537 0-8.219 3.681-8.219 8.219s3.681 8.219 8.219 8.219 8.219-3.681 8.219-8.219c0-4.537-3.681-8.219-8.219-8.219zM16 21.331c-2.944 0-5.331-2.387-5.331-5.331s2.387-5.331 5.331-5.331c2.944 0 5.331 2.387 5.331 5.331s-2.387 5.331-5.331 5.331z"></path>
<path d="M26.462 7.456c0 1.060-0.859 1.919-1.919 1.919s-1.919-0.859-1.919-1.919c0-1.060 0.859-1.919 1.919-1.919s1.919 0.859 1.919 1.919z"></path>
</symbol>
<symbol id="icon-whatsapp" viewBox="0 0 32 32">
<path d="M27.281 4.65c-2.994-3-6.975-4.65-11.219-4.65-8.738 0-15.85 7.112-15.85 15.856 0 2.794 0.731 5.525 2.119 7.925l-2.25 8.219 8.406-2.206c2.319 1.262 4.925 1.931 7.575 1.931h0.006c0 0 0 0 0 0 8.738 0 15.856-7.113 15.856-15.856 0-4.238-1.65-8.219-4.644-11.219zM16.069 29.050v0c-2.369 0-4.688-0.637-6.713-1.837l-0.481-0.288-4.987 1.306 1.331-4.863-0.313-0.5c-1.325-2.094-2.019-4.519-2.019-7.012 0-7.269 5.912-13.181 13.188-13.181 3.519 0 6.831 1.375 9.319 3.862 2.488 2.494 3.856 5.8 3.856 9.325-0.006 7.275-5.919 13.188-13.181 13.188zM23.294 19.175c-0.394-0.2-2.344-1.156-2.706-1.288s-0.625-0.2-0.894 0.2c-0.262 0.394-1.025 1.288-1.256 1.556-0.231 0.262-0.462 0.3-0.856 0.1s-1.675-0.619-3.188-1.969c-1.175-1.050-1.975-2.35-2.206-2.744s-0.025-0.613 0.175-0.806c0.181-0.175 0.394-0.463 0.594-0.694s0.262-0.394 0.394-0.662c0.131-0.262 0.069-0.494-0.031-0.694s-0.894-2.15-1.219-2.944c-0.319-0.775-0.65-0.669-0.894-0.681-0.231-0.012-0.494-0.012-0.756-0.012s-0.694 0.1-1.056 0.494c-0.363 0.394-1.387 1.356-1.387 3.306s1.419 3.831 1.619 4.1c0.2 0.262 2.794 4.269 6.769 5.981 0.944 0.406 1.681 0.65 2.256 0.837 0.95 0.3 1.813 0.256 2.494 0.156 0.762-0.113 2.344-0.956 2.675-1.881s0.331-1.719 0.231-1.881c-0.094-0.175-0.356-0.275-0.756-0.475z"></path>
</symbol>
<symbol id="icon-twitter" viewBox="0 0 32 32">
<path d="M32 7.075c-1.175 0.525-2.444 0.875-3.769 1.031 1.356-0.813 2.394-2.1 2.887-3.631-1.269 0.75-2.675 1.3-4.169 1.594-1.2-1.275-2.906-2.069-4.794-2.069-3.625 0-6.563 2.938-6.563 6.563 0 0.512 0.056 1.012 0.169 1.494-5.456-0.275-10.294-2.888-13.531-6.862-0.563 0.969-0.887 2.1-0.887 3.3 0 2.275 1.156 4.287 2.919 5.463-1.075-0.031-2.087-0.331-2.975-0.819 0 0.025 0 0.056 0 0.081 0 3.181 2.263 5.838 5.269 6.437-0.55 0.15-1.131 0.231-1.731 0.231-0.425 0-0.831-0.044-1.237-0.119 0.838 2.606 3.263 4.506 6.131 4.563-2.25 1.762-5.075 2.813-8.156 2.813-0.531 0-1.050-0.031-1.569-0.094 2.913 1.869 6.362 2.95 10.069 2.95 12.075 0 18.681-10.006 18.681-18.681 0-0.287-0.006-0.569-0.019-0.85 1.281-0.919 2.394-2.075 3.275-3.394z"></path>
</symbol>
</defs>
</svg>
