<svg aria-hidden="true" style="position: absolute; width: 0; height: 0; overflow: hidden;" version="1.1" xmlns="http://www.w3.org/2000/svg" xmlns:xlink="http://www.w3.org/1999/xlink">
<defs>
<symbol id="icon-Shopping-cart" viewBox="0 0 29 32">
<path d="M20.276 9.944v0.91c-0.127-0.016-0.257-0.024-0.389-0.024s-0.261 0.008-0.389 0.024v-2.899c0-3.077-2.501-5.577-5.578-5.577s-5.577 2.501-5.577 5.577v2.899c-0.127-0.016-0.257-0.024-0.389-0.024s-0.261 0.008-0.389 0.024v-2.899c0-3.503 2.852-6.355 6.355-6.355s6.355 2.852 6.355 6.355v1.989zM22.979 13.921c0-0.956-0.434-1.81-1.115-2.377h4.378v15.304c0 1.862-1.51 3.372-3.372 3.372h-17.898c-1.862 0-3.372-1.51-3.372-3.372v-15.304h4.378c-0.681 0.567-1.115 1.422-1.115 2.377 0 1.707 1.384 3.092 3.092 3.092s3.091-1.384 3.091-3.092c0-0.956-0.434-1.81-1.115-2.377h7.979c-0.681 0.567-1.115 1.422-1.115 2.377 0 1.707 1.384 3.092 3.092 3.092s3.092-1.384 3.092-3.092z"></path>
</symbol>
<symbol id="icon-Nav-arrow" viewBox="0 0 19 32">
<path d="M18.323 16.713l-13.803 13.803c-0.666 0.666-1.745 0.666-2.411 0l-1.61-1.61c-0.665-0.664-0.666-1.742-0.003-2.408l10.939-10.99-10.939-10.99c-0.663-0.666-0.662-1.743 0.003-2.408l1.61-1.61c0.666-0.666 1.745-0.666 2.411 0l13.803 13.803c0.666 0.666 0.666 1.745 0 2.411z"></path>
</symbol>
<symbol id="icon-Vector" viewBox="0 0 24 32">
<path   d="M10.767 31.354c-9.081-13.165-10.767-14.516-10.767-19.354 0-6.627 5.373-12 12-12s12 5.373 12 12c0 4.838-1.686 6.189-10.767 19.354-0.596 0.861-1.871 0.861-2.467 0zM12 17c2.761 0 5-2.238 5-5s-2.238-5-5-5c-2.761 0-5 2.239-5 5s2.239 5 5 5z"></path>
</symbol>
<symbol id="icon-Vector_active" viewBox="0 0 53 32">
<path   d="M3.589 0h46.156c3.193 0 4.79 4.079 2.529 6.47l-23.069 24.42c-1.399 1.48-3.677 1.48-5.077 0l-23.069-24.42c-2.26-2.391-0.664-6.47 2.529-6.47z"></path>
</symbol>
<symbol id="icon-Star-5" viewBox="0 0 32 32">
<path  d="M14.283 1.113l-3.906 8.274-8.739 1.331c-1.567 0.237-2.195 2.256-1.059 3.412l6.322 6.437-1.495 9.093c-0.269 1.644 1.388 2.875 2.775 2.106l7.818-4.293 7.818 4.293c1.388 0.762 3.044-0.462 2.775-2.106l-1.495-9.093 6.322-6.437c1.136-1.156 0.508-3.175-1.059-3.412l-8.739-1.331-3.906-8.274c-0.7-1.475-2.727-1.494-3.433 0z"></path>
</symbol>
<symbol id="icon-left-arrow" viewBox="0 0 32 32">
<path  d="M16 32c-8.839 0-16-7.161-16-16s7.161-16 16-16c8.839 0 16 7.161 16 16s-7.161 16-16 16zM23.484 13.161h-7.484v-4.574c0-0.69-0.839-1.039-1.323-0.548l-7.374 7.413c-0.303 0.303-0.303 0.787 0 1.090l7.374 7.413c0.49 0.49 1.323 0.142 1.323-0.548v-4.568h7.484c0.426 0 0.774-0.348 0.774-0.774v-4.129c0-0.426-0.348-0.774-0.774-0.774z"></path>
</symbol>
<symbol id="icon-fill-heart" viewBox="0 0 37 32">
<path  d="M9.676 0.014c-2.606-0.137-5.157 0.718-7.047 2.597-3.782 3.758-3.445 10.15 0.762 14.326l15.171 15.062 15.168-15.062c4.207-4.179 4.544-10.569 0.762-14.326s-10.21-3.417-14.417 0.762l-1.513 1.504-1.516-1.504c-2.102-2.091-4.761-3.222-7.37-3.359z"></path>
</symbol>
<symbol id="icon-empty-heart" viewBox="0 0 37 32">
<path  d="M9.643 0.653h-0c-2.444-0.128-4.813 0.673-6.563 2.412-3.486 3.463-3.239 9.446 0.762 13.418 0 0 0 0 0 0l14.72 14.614 14.717-14.615M9.643 0.653l10.432 2.72c4.207-4.179 10.636-4.52 14.417-0.762s3.445 10.147-0.762 14.326l-0.451-0.454M9.643 0.653c2.449 0.128 4.96 1.192 6.952 3.174l0.001 0.001 1.967 1.951 1.963-1.952M9.643 0.653l10.883 3.174M33.278 16.483c4.001-3.975 4.247-9.955 0.762-13.418-3.488-3.466-9.511-3.215-13.515 0.762 0 0-0 0-0 0M33.278 16.483l-12.753-12.656"></path>
</symbol>
<symbol id="icon-dishes-card-icon" viewBox="0 0 35 32">
<path d="M0 7.742c0-4.276 3.466-7.742 7.742-7.742h19.097c4.276 0 7.742 3.466 7.742 7.742v11.355c0 7.126-5.777 12.903-12.903 12.903h-21.677v-24.258z"></path>
<path d="M24.507 17.605l1.271-5.661c0.162-0.723-0.38-1.427-1.133-1.427h-10.136l-0.163-0.806c-0.109-0.541-0.582-0.936-1.138-0.936h-2.756c-0.647 0-1.161 0.53-1.161 1.169v0.435c0 0.64 0.514 1.169 1.161 1.169h1.456l1.739 8.609c-0.429 0.374-0.701 0.928-0.701 1.544 0 1.121 0.899 2.040 2.022 2.040s2.022-0.92 2.022-2.040c0-0.199-0.028-0.391-0.081-0.573h3.861c-0.053 0.182-0.081 0.374-0.081 0.573 0 1.121 0.899 2.040 2.022 2.040s2.022-0.92 2.022-2.040c0-0.654-0.306-1.238-0.782-1.612l0.069-0.308c0.116-0.516-0.127-1.022-0.549-1.27 0.505-0.041 0.926-0.41 1.038-0.908 0 0 0 0 0 0z"></path>
</symbol>
<symbol id="icon-right-arrow" viewBox="0 0 32 32">
<path d="M16 0c8.839 0 16 7.161 16 16s-7.161 16-16 16c-8.839 0-16-7.161-16-16s7.161-16 16-16zM8.516 18.839h7.484v4.574c0 0.69 0.839 1.039 1.323 0.548l7.374-7.413c0.303-0.303 0.303-0.787 0-1.090l-7.374-7.419c-0.49-0.49-1.323-0.142-1.323 0.548v4.574h-7.484c-0.426 0-0.774 0.348-0.774 0.774v4.129c0 0.426 0.348 0.774 0.774 0.774z"></path>
</symbol>
<symbol id="icon-icon-pencil" viewBox="0 0 32 32">
<path d="M19.445 3.094l-15.866 14.849v4.057h4.331l15.868-14.853-4.333-4.053zM26.681 8.052l-17.235 16.132c-0.257 0.24-0.605 0.376-0.968 0.376h-6.268c-0.363 0-0.711-0.135-0.968-0.375s-0.401-0.566-0.401-0.906v-5.866c0-0.34 0.145-0.665 0.402-0.905l17.235-16.132c0.127-0.119 0.278-0.214 0.444-0.278s0.344-0.098 0.524-0.098c0.18 0 0.358 0.033 0.524 0.098s0.317 0.159 0.444 0.278l6.266 5.866c0.256 0.24 0.4 0.566 0.4 0.905s-0.144 0.665-0.4 0.905zM2.21 32c-0.393 0-0.771-0.146-1.049-0.407s-0.434-0.613-0.434-0.981c0-0.368 0.156-0.721 0.434-0.982s0.655-0.407 1.049-0.407h27.383c0.393 0 0.771 0.146 1.049 0.407s0.434 0.613 0.434 0.982c0 0.368-0.156 0.721-0.434 0.981s-0.656 0.407-1.049 0.407h-27.383z"></path>
</symbol>
<symbol id="icon-star-2-bg-grey" viewBox="0 0 32 32">
<path fill="#dcdce6" style="fill: var(--color1, #dcdce6)" d="M32 0h-30.6v32h30.6v-32z"></path>
</symbol>
<symbol id="icon-star-2-bg-green" viewBox="0 0 32 32">
<path fill="#73cf11" style="fill: var(--color2, #73cf11)" d="M31.75 0h-30.6v32h30.6v-32z"></path>
</symbol>
<symbol id="icon-star-2" viewBox="0 0 34 32">
<path fill="#fff" style="fill: var(--color3, #fff)" d="M17.286 23.952l6.648-1.762 2.778 8.952-9.426-7.19zM32.586 12.381h-11.703l-3.597-11.524-3.597 11.524h-11.703l9.471 7.143-3.597 11.524 24.726-18.667z"></path>
</symbol>
<symbol id="icon-share_outline" viewBox="0 0 30 32">
<path fill="#73738f" style="fill: var(--color1, #73738f)" d="M24.311 31.111c-1.635 0.019-3.185-0.728-4.188-2.019s-1.345-2.977-0.924-4.557l-9.46-5.407c-1.635 1.498-4.031 1.814-5.998 0.794s-3.088-3.163-2.805-5.361c0.283-2.199 1.91-3.986 4.072-4.475s4.4 0.425 5.601 2.288l8.588-4.91c-0.111-0.42-0.17-0.852-0.175-1.286-0.022-2.529 1.734-4.725 4.206-5.26s4.979 0.737 6.006 3.048 0.291 5.025-1.763 6.5c-2.054 1.475-4.861 1.306-6.723-0.404l-9.295 5.312c-0.009 0.392-0.064 0.781-0.163 1.161l9.458 5.405c1.741-1.598 4.332-1.845 6.343-0.604s2.954 3.667 2.307 5.94c-0.646 2.273-2.724 3.84-5.088 3.837zM24.311 23.556c-1.252 0-2.267 1.015-2.267 2.267s1.015 2.267 2.267 2.267c1.252 0 2.267-1.015 2.267-2.267s-1.015-2.267-2.267-2.267zM6.178 12.978c-1.252 0-2.267 1.015-2.267 2.267s1.015 2.267 2.267 2.267c1.252 0 2.267-1.015 2.267-2.267s-1.015-2.267-2.267-2.267zM24.311 3.911c-1.252 0-2.267 1.015-2.267 2.267s1.015 2.267 2.267 2.267c1.252 0 2.267-1.015 2.267-2.267s-1.015-2.267-2.267-2.267z"></path>
</symbol>
<symbol id="icon-icon-like" viewBox="0 0 32 32">
<path fill="#73738f" style="fill: var(--color1, #73738f)" d="M26.667 10.667h-7.483l1.497-4.489c0.269-0.811 0.133-1.709-0.367-2.403s-1.311-1.108-2.165-1.108h-2.149c-0.396 0-0.771 0.176-1.025 0.48l-6.267 7.52h-3.375c-1.471 0-2.667 1.196-2.667 2.667v12c0 1.471 1.196 2.667 2.667 2.667h17.743c0.543-0.002 1.072-0.168 1.518-0.477s0.788-0.746 0.98-1.253l3.676-9.801c0.056-0.15 0.084-0.308 0.084-0.468v-2.667c0-1.471-1.196-2.667-2.667-2.667zM5.333 13.333h2.667v12h-2.667v-12zM26.667 15.759l-3.591 9.575h-12.409v-12.851l5.957-7.149h1.528l-2.083 6.244c-0.068 0.2-0.086 0.414-0.055 0.623s0.112 0.408 0.236 0.579c0.124 0.172 0.286 0.311 0.475 0.408s0.397 0.146 0.608 0.146h9.333v2.425z"></path>
</symbol>
</defs>
</svg>
