<svg aria-hidden="true" style="position: absolute; width: 0; height: 0; overflow: hidden;" version="1.1" xmlns="http://www.w3.org/2000/svg" xmlns:xlink="http://www.w3.org/1999/xlink">
<defs>
<symbol id="icon-Shopping-cart" viewBox="0 0 29 32">
<path stroke-linejoin="miter" stroke-linecap="butt" stroke-miterlimit="4" stroke-width="3.2" fill="#fff" style="fill: var(--color1, #fff); stroke: var(--color1, #fff)" stroke="#fff" d="M20.276 9.944v0.91c-0.127-0.016-0.257-0.024-0.389-0.024s-0.261 0.008-0.389 0.024v-2.899c0-3.077-2.501-5.577-5.578-5.577s-5.577 2.501-5.577 5.577v2.899c-0.127-0.016-0.257-0.024-0.389-0.024s-0.261 0.008-0.389 0.024v-2.899c0-3.503 2.852-6.355 6.355-6.355s6.355 2.852 6.355 6.355v1.989zM22.979 13.921c0-0.956-0.434-1.81-1.115-2.377h4.378v15.304c0 1.862-1.51 3.372-3.372 3.372h-17.898c-1.862 0-3.372-1.51-3.372-3.372v-15.304h4.378c-0.681 0.567-1.115 1.422-1.115 2.377 0 1.707 1.384 3.092 3.092 3.092s3.091-1.384 3.091-3.092c0-0.956-0.434-1.81-1.115-2.377h7.979c-0.681 0.567-1.115 1.422-1.115 2.377 0 1.707 1.384 3.092 3.092 3.092s3.092-1.384 3.092-3.092z"></path>
</symbol>
<symbol id="icon-Nav-arrow" viewBox="0 0 19 32">
<path d="M18.323 16.713l-13.803 13.803c-0.666 0.666-1.745 0.666-2.411 0l-1.61-1.61c-0.665-0.664-0.666-1.742-0.003-2.408l10.939-10.99-10.939-10.99c-0.663-0.666-0.662-1.743 0.003-2.408l1.61-1.61c0.666-0.666 1.745-0.666 2.411 0l13.803 13.803c0.666 0.666 0.666 1.745 0 2.411z"></path>
</symbol>
<symbol id="icon-Vector" viewBox="0 0 24 32">
<path fill="#fff"  d="M10.767 31.354c-9.081-13.165-10.767-14.516-10.767-19.354 0-6.627 5.373-12 12-12s12 5.373 12 12c0 4.838-1.686 6.189-10.767 19.354-0.596 0.861-1.871 0.861-2.467 0zM12 17c2.761 0 5-2.238 5-5s-2.238-5-5-5c-2.761 0-5 2.239-5 5s2.239 5 5 5z"></path>
</symbol>
<symbol id="icon-Vector_active" viewBox="0 0 53 32">
<path fill="#fff"  d="M3.589 0h46.156c3.193 0 4.79 4.079 2.529 6.47l-23.069 24.42c-1.399 1.48-3.677 1.48-5.077 0l-23.069-24.42c-2.26-2.391-0.664-6.47 2.529-6.47z"></path>
</symbol>
</defs>
</svg>
