<svg width="31" height="32" viewBox="0 0 31 32" fill="none" xmlns="http://www.w3.org/2000/svg">
<ellipse cx="15.7654" cy="16" rx="15.2346" ry="16" fill="#FE043C"/>
<path d="M12.5756 23C10.5955 23 8.74961 22.3864 7.19598 21.3276C8.51506 21.4185 10.8429 21.2007 12.2909 19.7292C10.1127 19.6227 9.13039 17.8428 9.00227 17.0822C9.18734 17.1582 10.07 17.2495 10.5683 17.0365C8.06266 16.3671 7.67828 14.0243 7.7637 13.3093C8.2335 13.6592 9.03074 13.7809 9.34394 13.7505C7.00917 11.9706 7.84911 9.2931 8.26197 8.71501C9.93749 11.1883 12.4486 12.5773 15.5551 12.6546C15.4965 12.3809 15.4656 12.0959 15.4656 11.8032C15.4656 9.70277 17.0591 8 19.0247 8C20.0517 8 20.9771 8.46484 21.6268 9.20837C22.3131 9.03703 23.3459 8.63591 23.8509 8.28905C23.5963 9.26268 22.804 10.0749 22.3247 10.3759C22.3287 10.3862 22.3208 10.3656 22.3247 10.3759C22.7457 10.3081 23.8849 10.0748 24.3349 9.74949C24.1123 10.2965 23.2723 11.2059 22.5829 11.7151C22.7111 17.7422 18.3831 23 12.5756 23Z" fill="#FFCC80"/>
</svg>
