<!-- Generated by IcoMoon.io -->
<svg version="1.1" xmlns="http://www.w3.org/2000/svg" width="29" height="32" viewBox="0 0 29 32">
<title>shop-cart</title>
<path stroke-linejoin="miter" stroke-linecap="butt" stroke-miterlimit="4" stroke-width="3.2" stroke="#000" fill="#000" d="M20.276 9.944v0.91c-0.127-0.016-0.257-0.024-0.389-0.024s-0.261 0.008-0.389 0.024v-2.899c0-3.077-2.501-5.577-5.578-5.577s-5.577 2.501-5.577 5.577v2.899c-0.127-0.016-0.257-0.024-0.389-0.024s-0.261 0.008-0.389 0.024v-2.899c0-3.503 2.852-6.355 6.355-6.355s6.355 2.852 6.355 6.355v1.989zM22.979 13.921c0-0.956-0.434-1.81-1.115-2.377h4.378v15.304c0 1.862-1.51 3.372-3.372 3.372h-17.898c-1.862 0-3.372-1.51-3.372-3.372v-15.304h4.378c-0.681 0.567-1.115 1.422-1.115 2.377 0 1.707 1.384 3.092 3.092 3.092s3.091-1.384 3.091-3.092c0-0.956-0.434-1.81-1.115-2.377h7.979c-0.681 0.567-1.115 1.422-1.115 2.377 0 1.707 1.384 3.092 3.092 3.092s3.092-1.384 3.092-3.092z"></path>
</svg>
